<svg width="218" height="221" viewBox="0 0 218 221" fill="none" xmlns="http://www.w3.org/2000/svg">
<path d="M60.9529 16C60.0226 15.9999 59.1166 16.3015 58.3674 16.8606C57.6182 17.4198 57.065 18.2072 56.7888 19.1078L54.0041 27.7752C50.7095 38.0032 51.8238 49.7729 57.2827 58.2576C60.8839 63.855 62.0165 73.5845 59.5734 81.1691L56.7888 89.8278C56.6109 90.3799 56.5421 90.9621 56.5863 91.5412C56.6304 92.1202 56.7866 92.6848 57.046 93.2026C57.3054 93.7205 57.6628 94.1815 58.0979 94.5593C58.533 94.9371 59.0373 95.2243 59.5819 95.4046C60.1265 95.5849 60.7008 95.6546 61.272 95.6099C61.8432 95.5651 62.4001 95.4067 62.9109 95.1438C63.4217 94.8809 63.8765 94.5185 64.2491 94.0774C64.6218 93.6363 64.9052 93.1251 65.083 92.573L67.8676 83.9057C71.1622 73.6777 70.0479 61.908 64.5891 53.4232C60.9879 47.8259 59.8552 38.0964 62.2984 30.5118L65.083 21.853C65.308 21.1871 65.3729 20.4763 65.2723 19.7798C65.1716 19.0832 64.9083 18.4212 64.5043 17.8486C64.1003 17.2761 63.5673 16.8096 62.9496 16.4881C62.3318 16.1665 61.6473 15.9992 60.9529 16ZM91.4729 16C90.5425 15.9999 89.6366 16.3015 88.8874 16.8606C88.1382 17.4198 87.585 18.2072 87.3088 19.1078L84.5241 27.7752C81.2295 38.0032 82.3438 49.7729 87.8027 58.2576C91.4039 63.855 92.5365 73.5845 90.0934 81.1691L87.3088 89.8278C87.1309 90.3799 87.0621 90.9621 87.1063 91.5412C87.1504 92.1202 87.3066 92.6848 87.566 93.2026C87.8254 93.7205 88.1828 94.1815 88.6179 94.5593C89.053 94.9371 89.5573 95.2243 90.1019 95.4046C90.6465 95.5849 91.2208 95.6546 91.792 95.6099C92.3632 95.5651 92.9201 95.4067 93.4309 95.1438C93.9417 94.8809 94.3965 94.5185 94.7691 94.0774C95.1418 93.6363 95.4252 93.1251 95.603 92.573L98.3876 83.9057C101.682 73.6777 100.568 61.908 95.1091 53.4232C91.5079 47.8259 90.3752 38.0964 92.8184 30.5118L95.603 21.853C95.828 21.1871 95.8929 20.4763 95.7923 19.7798C95.6916 19.0832 95.4283 18.4212 95.0243 17.8486C94.6203 17.2761 94.0873 16.8096 93.4696 16.4881C92.8518 16.1665 92.1673 15.9992 91.4729 16ZM121.993 16C121.063 15.9999 120.157 16.3015 119.407 16.8606C118.658 17.4198 118.105 18.2072 117.829 19.1078L115.044 27.7752C111.75 38.0032 112.864 49.7729 118.323 58.2576C121.924 63.855 123.056 73.5845 120.613 81.1691L117.829 89.8278C117.651 90.3799 117.582 90.9621 117.626 91.5412C117.67 92.1202 117.827 92.6848 118.086 93.2026C118.345 93.7205 118.703 94.1815 119.138 94.5593C119.573 94.9371 120.077 95.2243 120.622 95.4046C121.166 95.5849 121.741 95.6546 122.312 95.6099C122.883 95.5651 123.44 95.4067 123.951 95.1438C124.462 94.8809 124.916 94.5185 125.289 94.0774C125.662 93.6363 125.945 93.1251 126.123 92.573L128.908 83.9057C132.202 73.6777 131.088 61.908 125.629 53.4232C122.028 47.8259 120.895 38.0964 123.338 30.5118L126.123 21.853C126.348 21.1871 126.413 20.4763 126.312 19.7798C126.212 19.0832 125.948 18.4212 125.544 17.8486C125.14 17.2761 124.607 16.8096 123.99 16.4881C123.372 16.1665 122.687 15.9992 121.993 16ZM203.096 42.6063C202.112 42.6038 201.129 42.7009 200.166 42.8912C196.314 43.6524 192.752 45.9288 190.476 49.5212L190.833 49.0378L136.614 113.3H30.4159C29.2596 113.301 28.1506 113.766 27.333 114.595C26.5154 115.424 26.056 116.548 26.0559 117.72V130.98C26.0559 131.871 26.3573 132.68 26.3965 133.562C26.0539 134.319 25.9296 135.16 26.0381 135.987C26.1466 136.813 26.4834 137.591 27.0096 138.232C29.2961 156.645 39.3977 172.818 52.7268 184.59C67.8109 197.912 86.4264 206.12 102.356 206.12H141.596C157.525 206.12 176.141 197.912 191.225 184.59C206.309 171.268 217.896 152.491 217.896 130.98V117.72C217.896 116.548 217.436 115.424 216.619 114.595C215.801 113.766 214.692 113.301 213.536 113.3H169.663L214.43 67.3221C214.551 67.1995 214.665 67.0697 214.771 66.9336C219.939 60.186 218.486 50.2805 211.603 45.3516C209.023 43.5038 206.048 42.6138 203.096 42.6063ZM203.019 51.3945C204.236 51.404 205.475 51.7841 206.57 52.5686C209.468 54.6436 210.035 58.5863 207.899 61.4431L157.409 113.3H148.093L197.458 54.7872C197.585 54.6343 197.702 54.4728 197.807 54.3038C198.775 52.7778 200.236 51.8196 201.818 51.5068C202.214 51.4285 202.613 51.3914 203.019 51.3945ZM34.7759 122.14H138.002C138.406 122.198 138.816 122.198 139.22 122.14H158.619C159.003 122.193 159.392 122.193 159.777 122.14H209.176V130.98C209.176 149.25 199.186 165.833 185.494 177.926C171.802 190.018 154.442 197.28 141.596 197.28H102.356C89.5093 197.28 72.1497 190.018 58.4578 177.926C47.0347 167.837 38.5693 154.532 35.951 139.82H191.736C192.314 139.829 192.887 139.72 193.423 139.502C193.96 139.284 194.447 138.959 194.859 138.548C195.27 138.137 195.597 137.647 195.82 137.106C196.043 136.566 196.158 135.986 196.158 135.4C196.158 134.815 196.043 134.235 195.82 133.694C195.597 133.154 195.27 132.664 194.859 132.253C194.447 131.841 193.96 131.517 193.423 131.299C192.887 131.08 192.314 130.972 191.736 130.98H34.7759V122.14Z" fill="black"/>
</svg>